<?xml version="1.0" encoding="utf-8"?>
<!-- Generator: Adobe Illustrator 19.2.0, SVG Export Plug-In . SVG Version: 6.00 Build 0)  -->
<svg version="1.1" id="Layer_1" xmlns="http://www.w3.org/2000/svg" xmlns:xlink="http://www.w3.org/1999/xlink" x="0px" y="0px"
	 viewBox="0 0 612 792" style="enable-background:new 0 0 612 792;" xml:space="preserve">
<style type="text/css">
	.st0{fill:#FFFFFF;}
	.st1{fill:#000000;}
</style>
<g>
	<g>
		<path class="st0" d="M581,639c-182.3,0-364.5,0-546.9,0c0-161.2,0-322.4,0-483.8c182.2,0,364.6,0,546.9,0
			C581,316.3,581,477.6,581,639z M142.7,440.5c-53.1,2.7-92,44.4-89.5,95.9c2.4,49.2,46.7,88.3,96.8,85.5
			c51.8-2.9,92.2-47.3,87.1-99.8C232.6,476.8,192.7,439.3,142.7,440.5z M547.4,548.1c0.1-39.3-31.7-71.5-70.7-71.6
			c-38.8-0.1-70.2,31.4-71,69.7c-0.8,38.7,30.3,72.7,69.4,72.8C515.3,619.1,547.3,587.6,547.4,548.1z M353,187.8
			c-88.7,0.8-176.7,1.7-265,2.5c0,16.5,0,32.5,0,48.3c9.2,0,18,0,26.8,0c0,12.3,0,24.3,0,36.3c-0.1,27.7-0.1,55.3-0.5,83
			c0,2.8-1.1,6.6-3.1,8.2c-18.6,15.1-37.5,29.9-56.4,44.6c-4.3,3.4-8.6,6.3-5.4,12.8c0.6,1.2,0.1,3,0.1,4.5
			c-0.2,16.8-0.2,33.7-0.6,50.5c-0.1,3.6,1.1,5.6,3.1,5.1c6.8-7,14.5-13.3,21.8-19.8c21.9-19.5,46.6-31.9,76.5-32
			c21.8-0.1,42,6.1,61.4,15.6c2.2,1.1,4,2.9,5.7,4.7c17.7,18.9,28,40.7,26,68c51.8,0,103.3,0,155.3,0c0-0.1,0.5-0.8,0.9-1.5
			c13.3-27.3,35.1-44.7,63.4-54.5c22.9-7.9,46.8-9.4,70.8-10.9c9.1-0.6,18.2-1.3,27.3-2.4c5.7-0.6,11.1-6.9,11-12.4
			c-0.3-15.2-0.2-30.3-1.1-45.5c-1-16.5-4-32.8-12.1-47.5c-8.4-15.3-20.9-24-39.1-23.6c-28.8,0.6-57.6,0.8-86.4,1.2
			c-4.3,0.1-8.5,0-12.9,0c-0.2-2.2-0.4-3.5-0.5-4.8c-0.1-1.5,0-3-0.1-4.5c-2.3-24.7,1.2-48.4,10.9-71.3c1.2-2.8,2.8-3.5,5.7-3.4
			c5.8,0.2,11.5,0.1,17.3,0.1c0-6.7,0-12.7,0-18.8c-20,0-39.6,0-59.3,0c0,6.3,0,12.4,0,19c3.8,0,7.3,0,11.4,0
			c-12.4,27.4-14.3,55.7-11.4,84.6c-11.7,0-22.7-0.2-33.7,0.1c-3.7,0.1-5.7-1.2-7.3-4.4c-13.8-26.8-27.7-53.5-41.6-80.2
			c-0.5-0.9-0.7-2-1.3-4.1c14.9,0,29.1,0,42.6,0C353,219,353,203.7,353,187.8z M451.8,196.9c4,0.6,5.8-1,7.3-3.8
			c3-5.5,6.5-10.8,9.2-16.4c2-4.1,3-8.7,4.4-13.1c-0.6-0.2-1.2-0.5-1.8-0.7C464.7,174,458.4,185.2,451.8,196.9z M424.5,200.2
			c-9.5,4.8-10.2,10.2-6.3,16.3C420.1,211.5,422.2,206,424.5,200.2z M439.7,183.3c0.6,0.1,1.1,0.2,1.7,0.3c0.5-2.2,1-4.5,1.6-6.7
			c0.3-1.2,0.6-2.8,1.5-3.4c3.7-2.8,3.9-6.2,0.5-9.2C443.2,170.6,441.5,177,439.7,183.3z M443.5,199.8c-3.8-2.1-5,0.1-6.1,2.4
			c-2,4.1-2.2,8.3,0.1,12.5C435.7,208.2,440.1,204.2,443.5,199.8z"/>
		<path class="st1" d="M142.7,440.5c50-1.2,89.9,36.3,94.3,81.6c5.2,52.5-35.2,96.9-87.1,99.8c-50.1,2.8-94.4-36.3-96.8-85.5
			C50.7,484.9,89.6,443.2,142.7,440.5z M144.8,582.4c29.2,0.5,53.3-22.1,53.7-50.5c0.4-28-22.9-50.9-52.2-51.4
			C117,480,92.9,502.7,92.6,531C92.2,559,115.5,581.9,144.8,582.4z"/>
		<path class="st1" d="M547.4,548.1c-0.1,39.5-32.1,71-72.4,70.9c-39.1-0.1-70.2-34.1-69.4-72.8c0.8-38.4,32.2-69.8,71-69.7
			C515.7,476.6,547.5,508.8,547.4,548.1z M476.7,586.4c21.6-0.1,38.9-17.1,38.8-38.1c-0.1-21-17.6-37.9-39.1-37.8
			c-21.6,0.1-38.9,17.1-38.8,38.1C437.7,569.7,455.1,586.5,476.7,586.4z"/>
		<path class="st1" d="M353,187.8c0,16,0,31.2,0,47.4c-13.5,0-27.7,0-42.6,0c0.7,2.1,0.9,3.2,1.3,4.1c13.9,26.7,27.8,53.4,41.6,80.2
			c1.7,3.2,3.6,4.5,7.3,4.4c11-0.3,21.9-0.1,33.7-0.1c-2.9-29-1-57.2,11.4-84.6c-4.1,0-7.6,0-11.4,0c0-6.6,0-12.7,0-19
			c19.8,0,39.4,0,59.3,0c0,6,0,12.1,0,18.8c-5.8,0-11.6,0.1-17.3-0.1c-2.8-0.1-4.5,0.6-5.7,3.4c-9.7,22.9-13.1,46.6-10.9,71.3
			c0.1,1.5,0,3,0.1,4.5c0.1,1.3,0.3,2.6,0.5,4.8c4.3,0,8.6,0,12.9,0c28.8-0.4,57.6-0.6,86.4-1.2c18.2-0.4,30.7,8.3,39.1,23.6
			c8.1,14.8,11.1,31,12.1,47.5c0.9,15.1,0.9,30.3,1.1,45.5c0.1,5.6-5.3,11.8-11,12.4c-9.1,1-18.2,1.8-27.3,2.4
			c-23.9,1.5-47.8,2.9-70.8,10.9c-28.3,9.8-50.1,27.2-63.4,54.5c-0.4,0.7-0.8,1.4-0.9,1.5c-52,0-103.5,0-155.3,0
			c2.1-27.3-8.3-49.1-26-68c-1.7-1.8-3.6-3.7-5.7-4.7c-19.4-9.5-39.5-15.7-61.4-15.6c-29.9,0.1-54.7,12.5-76.5,32
			c-7.3,6.5-15,12.8-21.8,19.8c-2,0.5-3.1-1.5-3.1-5.1c0.4-16.8,0.4-33.6,0.6-50.5c0-1.5,0.5-3.2-0.1-4.5c-3.2-6.5,1.1-9.4,5.4-12.8
			c18.9-14.7,37.8-29.5,56.4-44.6c2-1.6,3.1-5.4,3.1-8.2c0.3-27.7,0.4-55.3,0.5-83c0-12,0-24,0-36.3c-8.8,0-17.6,0-26.8,0
			c0-15.8,0-31.8,0-48.3C176.3,189.4,264.3,188.6,353,187.8z M350.9,191.9c-86.9,0.8-172.8,1.6-259.4,2.4c0,12.2,0,23.4,0,34.5
			c0,7.8,0.4,8.4,8.4,8.2c6.3-0.1,12.5-0.5,19.3-0.8c0,2.3,0,4.3,0,6.2c-0.1,39-0.3,78-0.3,117c0,5.5-1.2,9-6.3,12.7
			c-18.9,13.9-37.1,28.8-55.3,43.6c-2,1.6-3.2,5.1-3.3,7.7c-0.4,14.3-0.4,28.6-0.5,42.9c0,3.4,0,6.7,0,10.2
			c7.7-7.2,14.7-14.5,22.4-21.1c12-10.1,25.1-18.6,40.2-23.3c15-4.7,30.3-7.3,46.1-5.2c9.4,1.2,19,1.6,28.2,3.7
			c13.5,3.2,25,9.6,33.9,21.2c9.9,12.8,18.7,26,22.1,42c1.5,7.1,2,14.4,2.9,22c0.5,0.1,1.3,0.3,2.1,0.3c46.5,0,93,0.1,139.5-0.1
			c1.6,0,3.8-1.8,4.6-3.3c12.8-24.6,32-42.2,58.3-51.3c17.3-5.9,35-10.3,53.4-11.4c4.2-0.3,8.3-1.6,12.5-1.9
			c11.9-0.7,24-0.6,35.8-1.9c8.7-1,11-0.6,11.3-13.1c0.5-20.5-0.3-40.7-4.1-61c-3.6-19.5-12.1-33.9-29.7-42.9
			c-3-1.5-6.4-3.2-9.7-3.2c-14.8-0.3-29.7,0.1-44.5,0.1c-20.9,0-41.7,0-63.1,0c-1.7-13.9-2.4-28.8-0.6-43.8
			c1.8-14.8,4.8-29.3,11.8-43.3c-4,0-7.1,0.3-10-0.1c-4.3-0.6-6.4,1.1-8.1,5.2c-7.1,17.3-10.5,35.4-10.7,54
			c-0.1,8.6,0.9,17.3,1,25.9c0,1.4-1.6,3.9-2.4,3.9c-10.5,0-20.9-0.3-31.4-0.5c-2.5,0-5.2-0.2-7.3,0.8c-3.3,1.5-4.5,0-5.8-2.5
			c-15.1-29.3-30.2-58.5-45.4-87.8c-0.9-1.8-1.8-3.6-2.7-5.5c1.2-0.4,1.6-0.8,2.1-0.8c13.3-0.1,26.6-0.1,39.9-0.3
			c1.6,0,4.4-1.8,4.5-2.9C351,216.5,350.9,204.6,350.9,191.9z"/>
		<path class="st1" d="M451.8,196.9c6.6-11.7,12.9-22.9,19.1-34c0.6,0.2,1.2,0.5,1.8,0.7c-1.4,4.4-2.4,9-4.4,13.1c-2.7,5.6-6.3,10.9-9.2,16.4
			C457.6,195.8,455.8,197.5,451.8,196.9z"/>
		<path class="st1" d="M424.5,200.2c-2.3,5.9-4.4,11.4-6.3,16.3C414.3,210.3,415,204.9,424.5,200.2z"/>
		<path class="st1" d="M439.7,183.3c1.8-6.3,3.6-12.7,5.4-19c3.4,3,3.2,6.3-0.5,9.2c-0.9,0.7-1.2,2.2-1.5,3.4c-0.6,2.2-1.1,4.5-1.6,6.7
			C440.8,183.6,440.2,183.4,439.7,183.3z"/>
		<path class="st1" d="M443.5,199.8c-3.4,4.4-7.8,8.5-6.1,14.9c-2.2-4.2-2-8.4-0.1-12.5C438.5,199.9,439.7,197.6,443.5,199.8z"/>
		<path class="st0" d="M144.8,582.4c-29.3-0.5-52.6-23.4-52.2-51.4c0.4-28.3,24.4-51,53.7-50.5c29.3,0.5,52.6,23.4,52.2,51.4
			C198.1,560.3,174,583,144.8,582.4z"/>
		<path class="st0" d="M476.7,586.4c-21.5,0.1-39-16.7-39.1-37.8c-0.1-21,17.2-38,38.8-38.1c21.5-0.1,39,16.7,39.1,37.8
			C515.6,569.3,498.3,586.3,476.7,586.4z"/>
		<path class="st1" d="M350.9,191.9c0,12.7,0.1,24.6-0.2,36.6c0,1-2.9,2.9-4.5,2.9c-13.3,0.3-26.6,0.3-39.9,0.3
			c-0.5,0-0.9,0.3-2.1,0.8c0.9,1.9,1.7,3.8,2.7,5.5c15.1,29.3,30.3,58.5,45.4,87.8c1.3,2.5,2.4,4,5.8,2.5c2.1-1,4.9-0.8,7.3-0.8
			c10.5,0.1,20.9,0.5,31.4,0.5c0.9,0,2.4-2.6,2.4-3.9c-0.2-8.7-1.1-17.3-1-25.9c0.2-18.6,3.6-36.7,10.7-54c1.7-4.1,3.7-5.7,8.1-5.2
			c2.9,0.4,6,0.1,10,0.1c-7,14-10,28.5-11.8,43.3c-1.8,15-1.1,29.9,0.6,43.8c21.3,0,42.2,0,63.1,0c14.8,0,29.7-0.4,44.5-0.1
			c3.3,0.1,6.7,1.7,9.7,3.2c17.6,8.9,26.1,23.4,29.7,42.9c3.8,20.4,4.6,40.6,4.1,61c-0.3,12.6-2.6,12.2-11.3,13.1
			c-11.9,1.3-23.9,1.2-35.8,1.9c-4.2,0.3-8.3,1.6-12.5,1.9c-18.4,1.1-36.2,5.5-53.4,11.4c-26.3,9-45.5,26.6-58.3,51.3
			c-0.8,1.5-3,3.3-4.6,3.3c-46.5,0.2-93,0.1-139.5,0.1c-0.8,0-1.6-0.2-2.1-0.3c-1-7.5-1.5-14.8-2.9-22c-3.4-16-12.2-29.1-22.1-42
			c-8.9-11.5-20.4-18-33.9-21.2c-9.2-2.2-18.8-2.5-28.2-3.7c-15.8-2.1-31.1,0.5-46.1,5.2c-15.1,4.7-28.3,13.1-40.2,23.3
			c-7.7,6.5-14.8,13.8-22.4,21.1c0-3.5,0-6.9,0-10.2c0.1-14.3,0.1-28.6,0.5-42.9c0.1-2.7,1.4-6.2,3.3-7.7
			c18.2-14.8,36.4-29.7,55.3-43.6c5-3.7,6.3-7.2,6.3-12.7c0-39,0.2-78,0.3-117c0-2,0-3.9,0-6.2c-6.8,0.3-13,0.7-19.3,0.8
			c-7.9,0.2-8.4-0.4-8.4-8.2c0-11.1,0-22.3,0-34.5C178.2,193.5,264,192.7,350.9,191.9z M281.8,236c-16.7,0-34-0.1-51.2,0.2
			c-1,0-2.8,2.2-2.8,3.4c0,14,0.3,27.9,0.4,41.9c0.1,17.4,0,34.7,0,52.8c34.3-0.8,69.4-1.6,105-2.4C316,299.9,295.5,270.2,281.8,236
			z M149.2,238.1c0,32.1,0,63.7,0,96.1c22.9,0,45.7,0,68.8,0c0-32.6,0-64.3,0-96.1C195,238.1,172.4,238.1,149.2,238.1z M481.9,343.3
			c0.3,2.4,0.4,4.8,1.1,7.1c7.9,28.5,15.9,56.9,24.1,85.8c12.7,0,26,0,40.1,0c-1.2-3.5-2.3-6.6-3.2-9.7
			c-7.4-26.5-14.8-53.1-22.2-79.6c-0.9-3.1-2.3-4-6.1-3.8C504.9,343.7,493.9,343.3,481.9,343.3z M454.6,343.6c-16.4,0-32.1,0-48.7,0
			c2.6,9.1,4.8,17,7.1,25c6,21.3,12,42.5,18,63.8c0.7,2.7,1.3,4.8,5.1,4.6c11.6-0.6,23.3-0.8,34.9-1.1c9.7-0.3,9.7-0.2,7.1-9.4
			c-4.7-16.8-9.5-33.6-14.2-50.4C460.7,365.1,457.5,353.9,454.6,343.6z"/>
		<path class="st0" d="M281.8,236c13.8,34.2,34.2,63.9,51.4,95.9c-35.6,0.8-70.7,1.6-105,2.4c0-18.1,0.1-35.4,0-52.8c-0.1-14-0.4-27.9-0.4-41.9
			c0-1.2,1.8-3.4,2.8-3.4C247.8,236,265.1,236,281.8,236z"/>
		<path class="st0" d="M149.2,238.1c23.2,0,45.8,0,68.8,0c0,31.8,0,63.6,0,96.1c-23.1,0-45.9,0-68.8,0C149.2,301.8,149.2,270.2,149.2,238.1z"/>
		<path d="M481.9,343.3c12,0,23,0.4,33.9-0.2c3.8-0.2,5.2,0.7,6.1,3.8c7.4,26.5,14.8,53.1,22.2,79.6c0.9,3.1,2,6.1,3.2,9.7
			c-14.1,0-27.4,0-40.1,0c-8.1-28.9-16.1-57.3-24.1-85.8C482.4,348.1,482.3,345.6,481.9,343.3z M485.8,347c8,28.4,15.7,56,23.6,83.5
			c0.3,1.1,2.6,2.3,4,2.3c6.3,0.2,12.7,0.2,19-0.2c2.3-0.1,4.4-1.7,6.8-2.6c0.2,0.3,1,1.4,1.8,2.5c0.3-0.1,0.7-0.3,1-0.4
			c-2.7-9.8-5.5-19.5-8.4-30.1c-0.6,1.8-0.8,2.6-1.3,4.1c-0.6-2.4-1-4.2-1.4-6c-3.9-16.5-7.8-32.9-12-49.3c-0.4-1.4-2.3-3.5-3.6-3.5
			C505.8,346.9,496.2,347,485.8,347z"/>
		<path d="M454.6,343.6c2.9,10.3,6.1,21.4,9.3,32.6c4.7,16.8,9.5,33.6,14.2,50.4c2.6,9.2,2.6,9.1-7.1,9.4
			c-11.6,0.3-23.3,0.5-34.9,1.1c-3.8,0.2-4.4-2-5.1-4.6c-6-21.3-12-42.6-18-63.8c-2.2-8-4.5-15.9-7.1-25
			C422.5,343.6,438.2,343.6,454.6,343.6z M411.3,346.8c-0.1,1.1-0.3,1.7-0.2,2.1c7.6,27.1,15.2,54.2,23,81.3
			c0.3,1.2,2.2,2.6,3.4,2.6c11.5,0,23-0.3,34.4-0.5c3.5,0,4.2-1.4,3.3-4.7c-7.4-25.8-14.7-51.7-22.2-77.5c-0.4-1.4-2.5-3.2-3.8-3.2
			C436.7,346.7,424.2,346.8,411.3,346.8z"/>
		<path class="st0" d="M485.8,347c10.4,0,20-0.1,29.7,0.2c1.3,0,3.2,2.1,3.6,3.5c4.1,16.4,8,32.9,12,49.3c0.4,1.8,0.8,3.5,1.4,6
			c0.5-1.4,0.7-2.3,1.3-4.1c3,10.6,5.7,20.3,8.4,30.1c-0.3,0.1-0.7,0.3-1,0.4c-0.8-1.1-1.6-2.2-1.8-2.5c-2.4,1-4.6,2.5-6.8,2.6
			c-6.3,0.4-12.6,0.4-19,0.2c-1.4,0-3.7-1.2-4-2.3C501.5,403,493.8,375.4,485.8,347z"/>
		<path class="st0" d="M411.3,346.8c12.9,0,25.4-0.1,37.8,0.1c1.3,0,3.4,1.8,3.8,3.2c7.5,25.8,14.7,51.7,22.2,77.5
			c0.9,3.3,0.2,4.7-3.3,4.7c-11.5,0.1-23,0.5-34.4,0.5c-1.2,0-3-1.5-3.4-2.6c-7.8-27.1-15.4-54.2-23-81.3
			C411,348.5,411.2,348,411.3,346.8z"/>
	</g>
</g>
</svg>
