<?xml version="1.0" encoding="utf-8"?>
<!-- Generator: Adobe Illustrator 19.1.0, SVG Export Plug-In . SVG Version: 6.00 Build 0)  -->
<svg version="1.1"
	 id="svg12132" xmlns:dc="http://purl.org/dc/elements/1.1/" xmlns:cc="http://creativecommons.org/ns#" xmlns:rdf="http://www.w3.org/1999/02/22-rdf-syntax-ns#" xmlns:svg="http://www.w3.org/2000/svg" xmlns:sodipodi="http://sodipodi.sourceforge.net/DTD/sodipodi-0.dtd" xmlns:inkscape="http://www.inkscape.org/namespaces/inkscape" sodipodi:docname="scroll_blank.svg" inkscape:version="0.48.3.1 r9886"
	 xmlns="http://www.w3.org/2000/svg" xmlns:xlink="http://www.w3.org/1999/xlink" x="0px" y="0px"
	 viewBox="238 -307.2 845.1 1121.6" style="enable-background:new 238 -307.2 845.1 1121.6;" xml:space="preserve">
<style type="text/css">
	.st0{fill:url(#path12145-5-6_1_);}
	.st1{fill:url(#SVGID_1_);}
	.st2{fill:url(#path12145-5-6-5_1_);}
	.st3{fill:url(#path12673-0-8-4_1_);}
	.st4{fill:url(#path12145-5-97-5-6_1_);}
	.st5{fill:url(#path12673-0-8_1_);}
	.st6{fill:url(#path12145-5-9-7-2-7_1_);}
	.st7{fill:url(#path12145-5-97-9_1_);}
	.st8{fill:url(#path12673-0-2-9-6_1_);}
	.st9{fill:url(#path12145-5-9-7-3_1_);}
	.st10{fill:url(#path4604_1_);}
	.st11{fill:url(#path4608_1_);}
	.st12{fill:url(#path4604-2_1_);}
	.st13{fill:url(#path4631_1_);}
	.st14{fill:url(#path4633_1_);}
	.st15{fill:url(#path4635_1_);}
	.st16{fill:url(#path12143_1_);}
	.st17{fill:url(#path12673-0-2-4_1_);}
	.st18{fill:url(#SVGID_2_);}
	.st19{opacity:0.6429;clip-path:url(#SVGID_5_);enable-background:new    ;}
	.st20{fill:url(#SVGID_6_);}
	.st21{fill:url(#rect4032-1_1_);}
	.st22{fill:url(#path12145-5_1_);}
	.st23{fill:url(#SVGID_7_);}
	.st24{fill:url(#path12145-5-9_1_);}
	.st25{fill:url(#path12673-0_1_);}
	.st26{fill:url(#rect12140_1_);}
	.st27{fill:url(#path12145-5-0-3_1_);}
	.st28{fill:url(#path12145-5-9-3-9_1_);}
	.st29{fill:url(#path12673-0-7-9_1_);}
	.st30{fill:url(#path12143-6_1_);}
	.st31{fill:url(#path12145-5-97_1_);}
	.st32{fill:url(#path12145-5-9-7_1_);}
	.st33{fill:url(#path12673-0-2_1_);}
	.st34{fill:url(#rect12140-5_1_);}
	.st35{fill:url(#SVGID_8_);}
	.st36{opacity:0.5317;enable-background:new    ;}
	.st37{fill:url(#SVGID_12_);}
	.st38{fill:url(#path13139_1_);}
	.st39{fill:url(#path13139-1_1_);}
	.st40{fill:url(#path3235_1_);}
	.st41{fill:url(#path4364_1_);}
	.st42{fill:url(#path4420_1_);}
	.st43{fill:none;}
	.st44{font-family:'InaiMathi';}
	.st45{font-size:400px;}
</style>
<g id="g3115" transform="matrix(-1.3638445,0,0,1.6411873,863.63845,-16.411876)">
	<g id="layer1" transform="translate(-22.089886,-165.0945)">
		
			<linearGradient id="path12145-5-6_1_" gradientUnits="userSpaceOnUse" x1="503.7523" y1="296.2029" x2="497.5316" y2="415.9364" gradientTransform="matrix(1.9732 0.1672 -0.345 4.0719 -555.5674 -781.1833)">
			<stop  offset="0" style="stop-color:#DFD5B8"/>
			<stop  offset="0.3378" style="stop-color:#EBE3C2"/>
			<stop  offset="0.6415" style="stop-color:#E2D9BB"/>
			<stop  offset="1" style="stop-color:#CCBC92"/>
		</linearGradient>
		<path id="path12145-5-6" inkscape:connector-curvature="0" class="st0" d="M352.4,656.7c19.6,2.5,41.9-8,47.7-56
			c5.8-48-7.1-81.6-28.6-84.7c-22.5-0.6-104.7-7.9-106,19.4C264.5,631.6,316.4,652.4,352.4,656.7L352.4,656.7z"/>
		<g id="path12145-5-9-1-1" inkscape:connector-curvature="0">
			<linearGradient id="SVGID_1_" gradientUnits="userSpaceOnUse" x1="367.7137" y1="603.6446" x2="445.0974" y2="603.6446">
				<stop  offset="0" style="stop-color:#DFD5B8"/>
				<stop  offset="0.3378" style="stop-color:#EBE3C2"/>
				<stop  offset="0.6415" style="stop-color:#E2D9BB"/>
				<stop  offset="1" style="stop-color:#CCBC92"/>
			</linearGradient>
			<path class="st1" d="M313.6,585.7c1.1,10.2-5.4,14-1.3,20.4s35.9,14.7,41.9,14.8c8.9,3.8,17.2-7,11.7-25.4
				C353.3,594.6,325,589.1,313.6,585.7z"/>
		</g>
		<g id="g4577" transform="matrix(0.37494373,0,0,0.39323598,332.53445,474.51381)">
			
				<linearGradient id="path12145-5-6-5_1_" gradientUnits="userSpaceOnUse" x1="3246.792" y1="-497.5289" x2="3240.5713" y2="-377.7954" gradientTransform="matrix(0.2774 2.349846e-02 -5.333699e-02 0.6296 -881.7766 456.6166)">
				<stop  offset="0" style="stop-color:#DFD5B8"/>
				<stop  offset="0.3378" style="stop-color:#EBE3C2"/>
				<stop  offset="0.6415" style="stop-color:#E2D9BB"/>
				<stop  offset="1" style="stop-color:#CCBC92"/>
			</linearGradient>
			<path id="path12145-5-6-5" inkscape:connector-curvature="0" class="st2" d="M61.6,367.1c19.6,2.5,41.9-8,47.7-56
				c5.8-48-7.1-81.6-28.6-84.7s-104.7-7.9-106,19.4C-26.3,342,25.5,362.9,61.6,367.1L61.6,367.1z"/>
			
				<linearGradient id="path12673-0-8-4_1_" gradientUnits="userSpaceOnUse" x1="3201.1255" y1="-510.3154" x2="3201.0042" y2="-433.7013" gradientTransform="matrix(0.2774 2.349846e-02 -5.333699e-02 0.6296 -881.7766 456.6166)">
				<stop  offset="0" style="stop-color:#DFD5B8"/>
				<stop  offset="0.3378" style="stop-color:#EBE3C2"/>
				<stop  offset="0.6415" style="stop-color:#E2D9BB"/>
				<stop  offset="1" style="stop-color:#CCBC92"/>
			</linearGradient>
			<path id="path12673-0-8-4" inkscape:connector-curvature="0" class="st3" d="M-13.5,226.5l-9,82.7c24.9,2.9,81.5,19.5,83.3,20
				c-13.7-4.1-16.2-24.9-15-49.6c1.3-27,12.9-55.6,34.1-53.3l0,0C49.8,221.2,8.7,223.8-13.5,226.5L-13.5,226.5z M60.8,329.2l0.6,0.2
				l0,0C61.2,329.3,61,329.2,60.8,329.2L60.8,329.2z"/>
		</g>
		
			<linearGradient id="path12145-5-97-5-6_1_" gradientUnits="userSpaceOnUse" x1="406.5006" y1="591.4208" x2="644.1725" y2="591.4208">
			<stop  offset="0" style="stop-color:#DFD5B8"/>
			<stop  offset="0.3378" style="stop-color:#EBE3C2"/>
			<stop  offset="0.6415" style="stop-color:#E2D9BB"/>
			<stop  offset="1" style="stop-color:#CCBC92"/>
		</linearGradient>
		<path id="path12145-5-97-5-6" inkscape:connector-curvature="0" class="st4" d="M353,656.6c24.7,1.2,51.2-9.8,53.3-54.1
			c2.1-44.3-17.5-74.2-44.5-75.8c-27-1.5-130.9-0.9-129.6,24.1C241.2,639,353,656.6,353,656.6L353,656.6z"/>
		
			<linearGradient id="path12673-0-8_1_" gradientUnits="userSpaceOnUse" x1="496.4787" y1="295.86" x2="491.988" y2="369.0948" gradientTransform="matrix(1.9732 0.1672 -0.345 4.0719 -555.5674 -781.1833)">
			<stop  offset="0" style="stop-color:#DFD5B8"/>
			<stop  offset="0.3378" style="stop-color:#EBE3C2"/>
			<stop  offset="0.6415" style="stop-color:#E2D9BB"/>
			<stop  offset="1" style="stop-color:#CCBC92"/>
		</linearGradient>
		<path id="path12673-0-8" inkscape:connector-curvature="0" class="st5" d="M276.8,515.9l-8.5,82.9c24.9,2.9,81.5,19.5,83.3,20
			c-13.7-4.1-16.2-24.9-15-49.6c1.3-27,12.9-55.6,34.1-53.3l0,0C343.8,512.3,298.9,516.8,276.8,515.9L276.8,515.9z M351.7,618.8
			l0.6,0.2l0,0C352.1,618.8,351.9,618.8,351.7,618.8L351.7,618.8z"/>
		
			<linearGradient id="path12145-5-9-7-2-7_1_" gradientUnits="userSpaceOnUse" x1="367.9521" y1="606.5888" x2="436.1519" y2="606.5888">
			<stop  offset="0" style="stop-color:#DFD5B8"/>
			<stop  offset="0.3378" style="stop-color:#EBE3C2"/>
			<stop  offset="0.6415" style="stop-color:#E2D9BB"/>
			<stop  offset="1" style="stop-color:#CCBC92"/>
		</linearGradient>
		<path id="path12145-5-9-7-2-7" inkscape:connector-curvature="0" class="st6" d="M317.9,590.9c5,18.5,18,32,33,31.4
			c12,1,22.6-14.3,13.7-30.8C349,591.5,332.5,593.3,317.9,590.9L317.9,590.9z"/>
		<linearGradient id="path12145-5-97-9_1_" gradientUnits="userSpaceOnUse" x1="401.536" y1="585.2701" x2="587.016" y2="585.2701">
			<stop  offset="0" style="stop-color:#DFD5B8"/>
			<stop  offset="0.3378" style="stop-color:#EBE3C2"/>
			<stop  offset="0.6415" style="stop-color:#E2D9BB"/>
			<stop  offset="1" style="stop-color:#CCBC92"/>
		</linearGradient>
		<path id="path12145-5-97-9" inkscape:connector-curvature="0" class="st7" d="M352.4,656.7c19.6,2.5,41.9-8,47.7-56
			c5.8-48-7.1-81.6-28.6-84.7c-21.5-3.1-104.7-7.9-106,19.4C264.5,631.6,352.4,656.7,352.4,656.7L352.4,656.7z"/>
		
			<linearGradient id="path12673-0-2-9-6_1_" gradientUnits="userSpaceOnUse" x1="361.1465" y1="572.0656" x2="522.8985" y2="572.0656">
			<stop  offset="0" style="stop-color:#DFD5B8"/>
			<stop  offset="0.3378" style="stop-color:#EBE3C2"/>
			<stop  offset="0.6415" style="stop-color:#E2D9BB"/>
			<stop  offset="1" style="stop-color:#CCBC92"/>
		</linearGradient>
		<path id="path12673-0-2-9-6" inkscape:connector-curvature="0" class="st8" d="M244.6,522.1l-2.1,86.6
			c31.2,1.2,103.3,12.9,105.7,13.3c-17.5-2.9-22.8-21.8-23.9-44.5c-1.2-24.7,10.2-51.6,36.8-50.7l0,0
			C361,526.7,257.4,527,244.6,522.1L244.6,522.1z M348.1,622l0.8,0.1l0,0C348.7,622.1,348.4,622,348.1,622L348.1,622z"/>
		
			<linearGradient id="path12145-5-9-7-3_1_" gradientUnits="userSpaceOnUse" x1="369.3738" y1="601.3774" x2="422.4646" y2="601.3774">
			<stop  offset="0" style="stop-color:#DFD5B8"/>
			<stop  offset="0.3378" style="stop-color:#EBE3C2"/>
			<stop  offset="0.6415" style="stop-color:#E2D9BB"/>
			<stop  offset="1" style="stop-color:#CCBC92"/>
		</linearGradient>
		<path id="path12145-5-9-7-3" inkscape:connector-curvature="0" class="st9" d="M330.4,583.4c2.3,20.4,11.5,35.7,23.5,35.9
			c9.5,1.7,19.4-14.4,13.8-32.8C355.2,585.6,341.9,586.7,330.4,583.4L330.4,583.4z"/>
		<linearGradient id="path4604_1_" gradientUnits="userSpaceOnUse" x1="474.8465" y1="124.7155" x2="492.0309" y2="124.7155">
			<stop  offset="0" style="stop-color:#DFD5B8"/>
			<stop  offset="0.3378" style="stop-color:#EBE3C2"/>
			<stop  offset="0.6415" style="stop-color:#E2D9BB"/>
			<stop  offset="1" style="stop-color:#CCBC92"/>
		</linearGradient>
		<path id="path4604" inkscape:connector-curvature="0" class="st10" d="M462.9,135.9l10.9-15.3l1-7L462.2,131L462.9,135.9z"/>
		<linearGradient id="path4608_1_" gradientUnits="userSpaceOnUse" x1="464.6465" y1="139.2655" x2="468.8743" y2="139.2655">
			<stop  offset="0" style="stop-color:#DFD5B8"/>
			<stop  offset="0.3378" style="stop-color:#EBE3C2"/>
			<stop  offset="0.6415" style="stop-color:#E2D9BB"/>
			<stop  offset="1" style="stop-color:#CCBC92"/>
		</linearGradient>
		<path id="path4608" inkscape:connector-curvature="0" class="st11" d="M463.3,128.1l1.1,4.1l0.2,12.4l-3.1,5.9L463.3,128.1z"/>
		<linearGradient id="path4604-2_1_" gradientUnits="userSpaceOnUse" x1="400.7465" y1="282.8155" x2="456.255" y2="282.8155">
			<stop  offset="0" style="stop-color:#DFD5B8"/>
			<stop  offset="0.3378" style="stop-color:#EBE3C2"/>
			<stop  offset="0.6415" style="stop-color:#E2D9BB"/>
			<stop  offset="1" style="stop-color:#CCBC92"/>
		</linearGradient>
		<path id="path4604-2" inkscape:connector-curvature="0" class="st12" d="M360,284.8l39.6-1.1l1.1-2.8l-39.3,2.2L360,284.8z"/>
		<linearGradient id="path4631_1_" gradientUnits="userSpaceOnUse" x1="397.0465" y1="291.7655" x2="425.0053" y2="291.7655">
			<stop  offset="0" style="stop-color:#DFD5B8"/>
			<stop  offset="0.3378" style="stop-color:#EBE3C2"/>
			<stop  offset="0.6415" style="stop-color:#E2D9BB"/>
			<stop  offset="1" style="stop-color:#CCBC92"/>
		</linearGradient>
		<path id="path4631" inkscape:connector-curvature="0" class="st13" d="M377.2,294.5l18.8-2.2l1-3.2l-20.5,3.2L377.2,294.5z"/>
		<linearGradient id="path4633_1_" gradientUnits="userSpaceOnUse" x1="-104.2533" y1="495.9156" x2="-63.6107" y2="495.9156">
			<stop  offset="0" style="stop-color:#DFD5B8"/>
			<stop  offset="0.3378" style="stop-color:#EBE3C2"/>
			<stop  offset="0.6415" style="stop-color:#E2D9BB"/>
			<stop  offset="1" style="stop-color:#CCBC92"/>
		</linearGradient>
		<path id="path4633" inkscape:connector-curvature="0" class="st14" d="M-104.3,488.7l-29.8,14.5l2.1-6.2l14.1-8.1L-104.3,488.7z"
			/>
		<linearGradient id="path4635_1_" gradientUnits="userSpaceOnUse" x1="-69.8533" y1="18.4655" x2="-36.1664" y2="18.4655">
			<stop  offset="0" style="stop-color:#DFD5B8"/>
			<stop  offset="0.3378" style="stop-color:#EBE3C2"/>
			<stop  offset="0.6415" style="stop-color:#E2D9BB"/>
			<stop  offset="1" style="stop-color:#CCBC92"/>
		</linearGradient>
		<path id="path4635" inkscape:connector-curvature="0" class="st15" d="M-70.4,20l-24.2-0.4l2.9-2.6l21.8,1.2L-70.4,20z"/>
		
			<linearGradient id="path12143_1_" gradientUnits="userSpaceOnUse" x1="299.7023" y1="391.9567" x2="751.0186" y2="429.0996" gradientTransform="matrix(1.86 0 0 2.6935 -587.5809 -692.0873)">
			<stop  offset="0" style="stop-color:#DFD5B8"/>
			<stop  offset="0.3378" style="stop-color:#EBE3C2"/>
			<stop  offset="0.6415" style="stop-color:#E2D9BB"/>
			<stop  offset="1" style="stop-color:#CCBC92"/>
		</linearGradient>
		<path id="path12143" inkscape:connector-curvature="0" class="st16" d="M409.5-11.3c-2.4,0-4.8,0.1-7.4,0.3l-391,134.3
			C-23.9,193.2-110,373.8-132.3,501l11.6-7.6l-13.4,19c-10.2,68.5,0.3,119.1,51,123.7l440.3,21.1c-87.5-7.1-29.6-205.1,35.7-361.7
			l-11.7-2.5l13.8-2.4c0.4-1.1,0.9-2.1,1.3-3.2l-33.7-3.4l36-2.2c22.2-52.2,44.9-98.8,62.5-130.9c1-1.8,1.9-3.6,2.8-5.5v-13.7
			l10.2-14.8C488.8,58.8,471.1-11.5,409.5-11.3z"/>
		
			<linearGradient id="path12673-0-2-4_1_" gradientUnits="userSpaceOnUse" x1="370.7466" y1="561.8156" x2="510.4044" y2="561.8156">
			<stop  offset="0" style="stop-color:#DFD5B8"/>
			<stop  offset="0.3378" style="stop-color:#EBE3C2"/>
			<stop  offset="0.6415" style="stop-color:#E2D9BB"/>
			<stop  offset="1" style="stop-color:#CCBC92"/>
		</linearGradient>
		<path id="path12673-0-2-4" inkscape:connector-curvature="0" class="st17" d="M278,504.7l-9.7,94.1c24.9,2.9,81.5,19.5,83.3,20
			c-13.7-4.1-16.2-24.9-15-49.6c1.3-27,12.9-55.6,34.1-53.3l0,0C370.8,515.8,287.8,510.7,278,504.7L278,504.7z M351.7,618.8l0.6,0.2
			l0,0C352.1,618.8,351.9,618.8,351.7,618.8L351.7,618.8z"/>
		<g id="path13153" inkscape:connector-curvature="0">
			
				<linearGradient id="SVGID_2_" gradientUnits="userSpaceOnUse" x1="368.5984" y1="297.1316" x2="306.149" y2="927.1316" gradientTransform="matrix(1.86 0 0 2.6935 -587.5809 -692.0873)">
				<stop  offset="0" style="stop-color:#DFD5B8"/>
				<stop  offset="0.3378" style="stop-color:#EBE3C2"/>
				<stop  offset="0.6415" style="stop-color:#E2D9BB"/>
				<stop  offset="1" style="stop-color:#CCBC92"/>
			</linearGradient>
			<path class="st18" d="M111.2,151.9C11.7,191.2,10.8,274.8-13.1,379C-26.7,438-95.4,534.6-36,523.3
				c81.7-15.5,123.2,5.6,228.6,41.4c61.1,20.8,57.2-111.1,70-174.3c15-74.3,64.2-118.9,21.4-181.4
				C245.4,152.6,174.7,126.7,111.2,151.9z"/>
		</g>
		<g>
			<g>
				<defs>
					<path id="SVGID_3_" d="M125.4,84.1L11.2,123.3c-11.3,22.5-27.9,56.6-45.9,96.5h461.2c12.6-26.7,24.5-50.2,34.7-68.8
						c10.8-19.5,16.9-43.5,17.8-67L125.4,84.1L125.4,84.1z"/>
				</defs>
				<linearGradient id="SVGID_4_" gradientUnits="userSpaceOnUse" x1="479.0465" y1="151.8655" x2="1179.6534" y2="151.8655">
					<stop  offset="0" style="stop-color:#DFD5B8"/>
					<stop  offset="0.3378" style="stop-color:#EBE3C2"/>
					<stop  offset="0.6415" style="stop-color:#E2D9BB"/>
					<stop  offset="1" style="stop-color:#CCBC92"/>
				</linearGradient>
				<use xlink:href="#SVGID_3_"  style="overflow:visible;fill:url(#SVGID_4_);"/>
				<clipPath id="SVGID_5_">
					<use xlink:href="#SVGID_3_"  style="overflow:visible;"/>
				</clipPath>
				<g id="rect13642" inkscape:connector-curvature="0" class="st19">
					<linearGradient id="SVGID_6_" gradientUnits="userSpaceOnUse" x1="442.483" y1="109.3541" x2="1041.9424" y2="109.3541">
						<stop  offset="0" style="stop-color:#DFD5B8"/>
						<stop  offset="0.3378" style="stop-color:#EBE3C2"/>
						<stop  offset="0.6415" style="stop-color:#E2D9BB"/>
						<stop  offset="1" style="stop-color:#CCBC92"/>
					</linearGradient>
					<path class="st20" d="M3.6,88.7l432.7-20c16.3,36.6-0.2,85.5-45.6,81.1L2.9,143.2L3.6,88.7z"/>
				</g>
			</g>
		</g>
		
			<linearGradient id="rect4032-1_1_" gradientUnits="userSpaceOnUse" x1="521.6331" y1="261.7139" x2="521.6331" y2="417.2773" gradientTransform="matrix(1.8556 0.1709 -0.1851 3.5911 -519.2823 -1100.6316)">
			<stop  offset="0" style="stop-color:#DFD5B8"/>
			<stop  offset="0.3378" style="stop-color:#EBE3C2"/>
			<stop  offset="0.6415" style="stop-color:#E2D9BB"/>
			<stop  offset="1" style="stop-color:#CCBC92"/>
		</linearGradient>
		<path id="rect4032-1" inkscape:connector-curvature="0" class="st21" d="M409.5-11.3c-2.4,0-4.8,0.1-7.4,0.3l-93.4,32.1
			l-5.5,106.8l160.7,14.8v-10.8l10.2-14.8C488.8,58.8,471.1-11.5,409.5-11.3z"/>
		
			<linearGradient id="path12145-5_1_" gradientUnits="userSpaceOnUse" x1="517.7664" y1="275.8935" x2="511.5458" y2="395.6269" gradientTransform="matrix(1.86 0 0 2.6935 -587.5809 -692.0873)">
			<stop  offset="0" style="stop-color:#DFD5B8"/>
			<stop  offset="0.3378" style="stop-color:#EBE3C2"/>
			<stop  offset="0.6415" style="stop-color:#E2D9BB"/>
			<stop  offset="1" style="stop-color:#CCBC92"/>
		</linearGradient>
		<path id="path12145-5" inkscape:connector-curvature="0" class="st22" d="M402.3,147c18.6,0.6,38.6-7.6,40.2-39.4
			s-13.2-53.2-33.5-54s-98.6,0.7-97.7,18.6C318,135.4,402.3,147,402.3,147L402.3,147z"/>
		<g id="path12145-5-9-1" inkscape:connector-curvature="0">
			<linearGradient id="SVGID_7_" gradientUnits="userSpaceOnUse" x1="412.7348" y1="113.175" x2="485.8584" y2="113.175">
				<stop  offset="0" style="stop-color:#DFD5B8"/>
				<stop  offset="0.3378" style="stop-color:#EBE3C2"/>
				<stop  offset="0.6415" style="stop-color:#E2D9BB"/>
				<stop  offset="1" style="stop-color:#CCBC92"/>
			</linearGradient>
			<path class="st23" d="M360.3,102.6c1.9,6.6-3.9,9.5,0.4,13.5c4.3,4,34.7,7.7,40.4,7.4c8.7,2,15.6-5.6,8.9-17.3
				C398.2,106.2,371.3,104.1,360.3,102.6L360.3,102.6z"/>
		</g>
		
			<linearGradient id="path12145-5-9_1_" gradientUnits="userSpaceOnUse" x1="527.8036" y1="286.5794" x2="526.0066" y2="343.0484" gradientTransform="matrix(1.86 0 0 2.6935 -587.5809 -692.0873)">
			<stop  offset="0" style="stop-color:#DFD5B8"/>
			<stop  offset="0.3378" style="stop-color:#EBE3C2"/>
			<stop  offset="0.6415" style="stop-color:#E2D9BB"/>
			<stop  offset="1" style="stop-color:#CCBC92"/>
		</linearGradient>
		<path id="path12145-5-9" inkscape:connector-curvature="0" class="st24" d="M375.9,100.1c3.8,13.3,13.6,22.8,24.9,22.3
			c9,0.6,17-10.5,10.3-22.3C399.3,100.2,386.9,101.7,375.9,100.1z"/>
		
			<linearGradient id="path12673-0_1_" gradientUnits="userSpaceOnUse" x1="511.7058" y1="273.9179" x2="511.5846" y2="350.532" gradientTransform="matrix(1.86 0 0 2.6935 -587.5809 -692.0873)">
			<stop  offset="0" style="stop-color:#DFD5B8"/>
			<stop  offset="0.3378" style="stop-color:#EBE3C2"/>
			<stop  offset="0.6415" style="stop-color:#E2D9BB"/>
			<stop  offset="1" style="stop-color:#CCBC92"/>
		</linearGradient>
		<path id="path12673-0" inkscape:connector-curvature="0" class="st25" d="M319,113.6c23.5,0.5,77.8,8.2,79.6,8.5
			c-13.2-1.9-17.2-15.5-18-31.8c0.3-26.9,13.8-35.9,28.8-38c0,0-77.6,1.9-87.3,3L319,113.6z M398.6,122.1l0.6,0.1l0,0
			C399,122.2,398.8,122.2,398.6,122.1z"/>
		
			<linearGradient id="rect12140_1_" gradientUnits="userSpaceOnUse" x1="396.6399" y1="254.7907" x2="404.1675" y2="409.0763" gradientTransform="matrix(1.86 0 0 2.6935 -587.5809 -692.0873)">
			<stop  offset="0" style="stop-color:#DFD5B8"/>
			<stop  offset="0.3378" style="stop-color:#EBE3C2"/>
			<stop  offset="0.6415" style="stop-color:#E2D9BB"/>
			<stop  offset="1" style="stop-color:#CCBC92"/>
		</linearGradient>
		<path id="rect12140" inkscape:connector-curvature="0" class="st26" d="M402.2-11C196.1-3.4,60.8,6.7-67.1,3.1
			C-77.4,6.3-85.8,11.5-92.3,18l20.5,1l-25.5,4.7c-28.6,37.5-9.7,106,30.2,109.1C91.4,128.2,249,138,402.2,147
			C347.9,132.3,342.8,8.5,402.2-11z"/>
		<linearGradient id="path12145-5-0-3_1_" gradientUnits="userSpaceOnUse" x1="402.2386" y1="592.5506" x2="622.811" y2="592.5506">
			<stop  offset="0" style="stop-color:#DFD5B8"/>
			<stop  offset="0.3378" style="stop-color:#EBE3C2"/>
			<stop  offset="0.6415" style="stop-color:#E2D9BB"/>
			<stop  offset="1" style="stop-color:#CCBC92"/>
		</linearGradient>
		<path id="path12145-5-0-3" inkscape:connector-curvature="0" class="st27" d="M353.7,656.9c18.4,2.4,39.7-7,46.5-50
			s-4.4-73.3-24.6-76.2c0,0-112.2-12-131.8,13.9c-19.6,25.9,53.6,89.7,52.6,102L353.7,656.9z"/>
		
			<linearGradient id="path12145-5-9-3-9_1_" gradientUnits="userSpaceOnUse" x1="371.465" y1="607.2264" x2="421.1341" y2="607.2264">
			<stop  offset="0" style="stop-color:#DFD5B8"/>
			<stop  offset="0.3378" style="stop-color:#EBE3C2"/>
			<stop  offset="0.6415" style="stop-color:#E2D9BB"/>
			<stop  offset="1" style="stop-color:#CCBC92"/>
		</linearGradient>
		<path id="path12145-5-9-3-9" inkscape:connector-curvature="0" class="st28" d="M335,591c1.6,18.3,9.8,32.1,21.2,32.4
			c8.9,1.6,18.7-12.8,14-29.3C358.4,593.2,345.7,594.1,335,591L335,591z"/>
		
			<linearGradient id="path12673-0-7-9_1_" gradientUnits="userSpaceOnUse" x1="374.9466" y1="571.6156" x2="509.6944" y2="571.6156">
			<stop  offset="0" style="stop-color:#DFD5B8"/>
			<stop  offset="0.3378" style="stop-color:#EBE3C2"/>
			<stop  offset="0.6415" style="stop-color:#E2D9BB"/>
			<stop  offset="1" style="stop-color:#CCBC92"/>
		</linearGradient>
		<path id="path12673-0-7-9" inkscape:connector-curvature="0" class="st29" d="M287.9,520.2l-11.8,84.3c23.4,2.7,76.3,17.9,78,18.4
			c-12.8-3.7-14.6-22.4-12.8-44.6c2-24.2,13.7-49.8,33.6-47.6c-25.8-5-64.2-1.1-87.6-4.4L287.9,520.2z M354.1,622.9l0.6,0.2l0,0
			C354.5,623,354.3,622.9,354.1,622.9L354.1,622.9z"/>
		<linearGradient id="path12143-6_1_" gradientUnits="userSpaceOnUse" x1="480.847" y1="322.8963" x2="1324.3046" y2="322.8963">
			<stop  offset="0" style="stop-color:#DFD5B8"/>
			<stop  offset="0.3378" style="stop-color:#EBE3C2"/>
			<stop  offset="0.6415" style="stop-color:#E2D9BB"/>
			<stop  offset="1" style="stop-color:#CCBC92"/>
		</linearGradient>
		<path id="path12143-6" inkscape:connector-curvature="0" class="st30" d="M402.2-11c81-7.2,97,102.2,59,162
			c-80.4,126.3-223.7,496.6-104,506.2l-440.3-21c-145-13.3,38.8-402.2,94.3-512.9L402.2-11z"/>
		<linearGradient id="path12145-5-97_1_" gradientUnits="userSpaceOnUse" x1="442.6649" y1="100.1982" x2="621.7732" y2="100.1982">
			<stop  offset="0" style="stop-color:#DFD5B8"/>
			<stop  offset="0.3378" style="stop-color:#EBE3C2"/>
			<stop  offset="0.6415" style="stop-color:#E2D9BB"/>
			<stop  offset="1" style="stop-color:#CCBC92"/>
		</linearGradient>
		<path id="path12145-5-97" inkscape:connector-curvature="0" class="st31" d="M402.3,147c18.6,0.6,38.6-7.6,40.2-39.4
			s-13.2-53.2-33.5-54s-98.6,0.7-97.7,18.6C318,135.4,402.3,147,402.3,147L402.3,147z"/>
		
			<linearGradient id="path12145-5-9-7_1_" gradientUnits="userSpaceOnUse" x1="413.6322" y1="111.2271" x2="465.0295" y2="111.2271">
			<stop  offset="0" style="stop-color:#DFD5B8"/>
			<stop  offset="0.3378" style="stop-color:#EBE3C2"/>
			<stop  offset="0.6415" style="stop-color:#E2D9BB"/>
			<stop  offset="1" style="stop-color:#CCBC92"/>
		</linearGradient>
		<path id="path12145-5-9-7" inkscape:connector-curvature="0" class="st32" d="M375.9,100.1c3.8,13.3,13.6,22.8,24.9,22.3
			c9,0.6,17-10.5,10.3-22.3C399.3,100.2,386.9,101.7,375.9,100.1z"/>
		<linearGradient id="path12673-0-2_1_" gradientUnits="userSpaceOnUse" x1="408.3465" y1="86.7155" x2="530.1379" y2="86.7155">
			<stop  offset="0" style="stop-color:#DFD5B8"/>
			<stop  offset="0.3378" style="stop-color:#EBE3C2"/>
			<stop  offset="0.6415" style="stop-color:#E2D9BB"/>
			<stop  offset="1" style="stop-color:#CCBC92"/>
		</linearGradient>
		<path id="path12673-0-2" inkscape:connector-curvature="0" class="st33" d="M320.6,51.3l-1.6,62.3c23.5,0.5,77.8,8.2,79.6,8.5
			c-13.2-1.9-17.2-15.5-18-31.8c-0.9-17.8,7.7-37.2,27.7-36.9l0,0C408.3,53.5,330.3,54.7,320.6,51.3L320.6,51.3z M398.6,122.1
			l0.6,0.1l0,0C399,122.2,398.8,122.2,398.6,122.1z"/>
		<linearGradient id="rect12140-5_1_" gradientUnits="userSpaceOnUse" x1="402.2465" y1="68.0655" x2="1102.2067" y2="68.0655">
			<stop  offset="0" style="stop-color:#DFD5B8"/>
			<stop  offset="0.3378" style="stop-color:#EBE3C2"/>
			<stop  offset="0.6415" style="stop-color:#E2D9BB"/>
			<stop  offset="1" style="stop-color:#CCBC92"/>
		</linearGradient>
		<path id="rect12140-5" inkscape:connector-curvature="0" class="st34" d="M-67.1,3.2C60.8,6.8,196.1-3.4,402.2-10.9
			c-59.5,19.5-54.3,143.3,0,158C249,138.1,91.4,128.3-67.1,133C-116.7,128.9-134,23.5-67.1,3.2L-67.1,3.2z"/>
	</g>
	<g id="layer4" transform="translate(-22.089886,-165.0945)">
		<g id="path13153-8" inkscape:connector-curvature="0">
			
				<linearGradient id="SVGID_8_" gradientUnits="userSpaceOnUse" x1="388.2303" y1="-101.1464" x2="379.1831" y2="420.7479" gradientTransform="matrix(1.9487 0 0 0.3916 -626.7758 47.5025)">
				<stop  offset="0" style="stop-color:#DFD5B8"/>
				<stop  offset="0.3378" style="stop-color:#EBE3C2"/>
				<stop  offset="0.6415" style="stop-color:#E2D9BB"/>
				<stop  offset="1" style="stop-color:#CCBC92"/>
			</linearGradient>
			<path class="st35" d="M-42.7,12.9c-9.5,12.1-29.6,30.5-14.5,51C18,53.1,191.3,55,321.6,70.3c-9.9-14.4-9.5-48,4.9-61.4
				C226.9,18.9,50.7,23.1-42.7,12.9z"/>
		</g>
		<g>
			<g>
				<defs>
					<path id="SVGID_9_" d="M-135.2,519.7c-8.3,64.8,3.2,112,52.1,116.4l440.3,21.1c-46.4-3.7-51.9-61.1-37.2-137.5H-135.2z"/>
				</defs>
				<linearGradient id="SVGID_10_" gradientUnits="userSpaceOnUse" x1="357.2465" y1="588.4156" x2="1032.1676" y2="588.4156">
					<stop  offset="0" style="stop-color:#DFD5B8"/>
					<stop  offset="0.3378" style="stop-color:#EBE3C2"/>
					<stop  offset="0.6415" style="stop-color:#E2D9BB"/>
					<stop  offset="1" style="stop-color:#CCBC92"/>
				</linearGradient>
				<use xlink:href="#SVGID_9_"  style="overflow:visible;fill:url(#SVGID_10_);"/>
				<clipPath id="SVGID_11_">
					<use xlink:href="#SVGID_9_"  style="overflow:visible;"/>
				</clipPath>
			</g>
		</g>
		<g id="path13153-8-1-9" inkscape:connector-curvature="0" class="st36">
			
				<linearGradient id="SVGID_12_" gradientUnits="userSpaceOnUse" x1="409.0668" y1="818.4423" x2="404.986" y2="1314.858" gradientTransform="matrix(1.8361 -5.703197e-02 -1.320539e-02 -0.3913 -610.3685 484.9573)">
				<stop  offset="0" style="stop-color:#DFD5B8"/>
				<stop  offset="0.3378" style="stop-color:#EBE3C2"/>
				<stop  offset="0.6415" style="stop-color:#E2D9BB"/>
				<stop  offset="1" style="stop-color:#CCBC92"/>
			</linearGradient>
			<path class="st37" d="M-60.6,123.7c-9.4-11.9-38-34.4-24.5-55.3c71.2,8.6,288.3,34.2,410.6,15.1c-8.8,14.7,9.8,37.1,23.8,50.1
				C255.2,127.4,29.2,110.3-60.6,123.7z"/>
		</g>
	</g>
	<g id="layer2" transform="translate(-22.089886,-165.0945)">
		<linearGradient id="path13139_1_" gradientUnits="userSpaceOnUse" x1="479.6491" y1="68.3294" x2="646.2062" y2="68.3294">
			<stop  offset="0" style="stop-color:#DFD5B8"/>
			<stop  offset="0.3378" style="stop-color:#EBE3C2"/>
			<stop  offset="0.6415" style="stop-color:#E2D9BB"/>
			<stop  offset="1" style="stop-color:#CCBC92"/>
		</linearGradient>
		<path id="path13139" inkscape:connector-curvature="0" class="st38" d="M365.9,111.2c0.1,0.3,0.2,0.6,0.3,0.8
			c3.8,9.1,8.9,17.9,15.8,25.1c5.2,5.5,11.9,10.3,19.8,11.3l0,0c6.5,0.8,13.3,0.3,19.5-2.2c5.3-2.1,9.8-5.7,13.3-10.2l0,0
			c3.5-4.6,5.9-10,7.3-15.5c1.6-5.9,2.2-12,2-18.1c-0.3-12-3.3-24.2-9.7-34.4c-2.8-4.5-6.4-8.5-10.9-11.4l0,0
			c-4.2-2.8-9.3-4.3-14.3-4.1l0,0c-4.7,0.1-9.4,1.2-13.5,3.5c-3.7,2-6.9,4.9-9.4,8.4l0,0c-2.5,3.5-4.3,7.4-5.4,11.5
			c-1.2,4.2-1.8,8.6-1.8,13c-0.1,8.3,1.6,16.8,5.8,24c1.8,3.1,4.2,5.9,7.2,7.9l0,0c2.9,1.9,6.3,2.9,9.8,2.8c2.4-0.1,4.7-0.7,6.7-2.1
			c1.8-1.3,3.1-3.3,3.9-5.3c1-2.5,1.3-5.3,1.1-7.9c0-0.2,0-0.5-0.1-0.7c-0.2-1.9-0.6-3.7-1.1-5c-0.4-1.3-0.8-2-1-1.9
			c-0.1,0,0,0.9,0.3,2.1s0.6,3,0.7,4.9c0,0.2,0,0.5,0.1,0.7c0.1,2.6-0.2,5.1-1.1,7.5c-0.7,1.9-1.9,3.6-3.6,4.8
			c-1.7,1.3-3.9,1.8-6,1.9c-3.2,0.1-6.4-0.9-9.1-2.7c-2.8-1.9-5-4.6-6.8-7.5l0,0c-4.1-6.9-5.6-15.2-5.5-23.3
			c0.1-4.2,0.7-8.5,1.9-12.5c1.2-3.9,2.9-7.7,5.3-10.9l0,0c2.3-3.2,5.4-5.9,8.8-7.8c3.9-2.1,8.3-3.1,12.7-3.2l0,0
			c4.6-0.1,9.3,1.3,13.2,3.9c4.2,2.7,7.5,6.6,10.2,10.9c6.2,9.9,9,21.7,9.2,33.4c0.1,5.9-0.5,11.8-2,17.4c-1.4,5.3-3.7,10.3-7,14.5
			c-3.2,4.1-7.4,7.4-12.2,9.3c-5.7,2.3-12,2.6-18.2,1.9c-6.9-0.8-13-5.3-18-10.5l0,0c-6.6-6.9-11.4-15.4-15-24.3
			c-0.1-0.3-0.2-0.5-0.3-0.8c-0.1-0.3-0.3-0.7-0.4-1c-8.5-21.4-10.5-45.5-4.8-67.8c3.2-12.7,8-25.1,15.9-35.4l0,0
			c3.4-4.4,7.3-8.4,12-11.3c4.4-2.7,9.4-4.5,14.6-4.8c15.4-1,31.5,2.8,43.6,12.4l0,0c12.7,10.1,20.3,25.7,23.8,41.7
			c3.1,14.6,5.3,29.4,4.8,44.3c-0.2,7.1-1.3,14.2-2.7,21.2c0,0.2-0.1,0.5-0.1,0.7c-0.8,3.7-1.7,10.6-1.5,10.7
			c0.2,0.1,1.7-6.7,2.5-10.4c0-0.2,0.1-0.5,0.1-0.7c1.5-7,2.6-14.1,2.9-21.3c0.6-15-1.5-30-4.5-44.7c-3.3-16.3-11-32.3-24.1-42.8
			l0,0c-12.5-10-29-14-44.9-13.1c-5.5,0.3-10.9,2.1-15.7,5c-5,3.1-9.2,7.2-12.7,11.7l0,0C369.4,15.4,364.4,28.2,361,41
			c-6,22.9-4.2,47.6,4.4,69.6C365.6,110.5,365.8,110.9,365.9,111.2L365.9,111.2z"/>
		<linearGradient id="path13139-1_1_" gradientUnits="userSpaceOnUse" x1="464.0591" y1="401.6209" x2="673.4145" y2="401.6209">
			<stop  offset="0" style="stop-color:#DFD5B8"/>
			<stop  offset="0.3378" style="stop-color:#EBE3C2"/>
			<stop  offset="0.6415" style="stop-color:#E2D9BB"/>
			<stop  offset="1" style="stop-color:#CCBC92"/>
		</linearGradient>
		<path id="path13139-1" inkscape:connector-curvature="0" class="st39" d="M464,145.6c-0.2-0.1-2.9,4.3-5.7,9.6
			c-0.2,0.3-0.4,0.7-0.5,1c-15.3,28.9-29.5,58.4-42.9,88.2c-5.5,12.2-11,24.9-16.4,37.6l1.2,1.7c5.2-12.4,11.1-26.3,16.6-38.7
			c13.3-29.9,27.4-59.4,42.5-88.3c0.2-0.3,0.4-0.7,0.5-1C462,150.3,464.2,145.7,464,145.6L464,145.6z M396,287.5
			c-0.5,1.1-0.9,2.1-1.4,3.2l1.3,1.4c0.4-0.9,1.5-3.5,1.9-4.4L396,287.5z M392.7,295.5c-6.6,15.7-12.9,31.4-18.8,46.5
			c-11.1,29.2-22.1,59-30.6,84.3c-3.7,11.1-7.2,22.3-10.5,33.5c-2.5,8.5-4.9,17.1-6.9,25.8c-4.7,20.1-9,40.4-11.9,60.8
			c-2.5,17.6-4.2,35.5-3.2,53.3c0.2,2.9,0.4,5.8,0.8,8.7c0.1,0.6,0.1,1.1,0.2,1.7c0.5,3.9,1.3,7.7,2.3,11.5
			c1.6,6.1,3.9,12.1,7.4,17.5c3.1,4.9,7.2,9.2,12.2,12.3c5.3,3.3,11.4,5.2,17.5,6c3.8,0.5,7.7,0.4,11.5-0.3c3.5-0.7,6.9-1.9,10-3.6
			c6.4-3.6,11.6-9,15.4-15.1c4.4-6.9,7.4-14.6,9.6-22.4c2.4-8.6,3.7-17.5,4.3-26.3c0.6-8.9,0.4-17.9-0.7-26.8
			c-1-8.1-2.7-16.1-5.5-23.8c-2.3-6.3-5.4-12.5-10.1-17.5c-2-2.1-4.2-3.9-6.8-5.3c-2.4-1.3-5.2-2.1-7.9-2.3
			c-5.1-0.3-10.3,0.9-14.7,3.7c-4.5,2.9-7.9,7.1-10.6,11.6c-3.1,5.2-5.3,10.9-6.8,16.6c-1.7,6.3-2.8,12.8-3.3,19.2
			c-0.5,6.5-0.5,13,0,19.5c0.5,5.8,1.4,11.7,3.1,17.3c1.3,4.5,3.2,8.9,6.2,12.7c1.2,1.5,2.6,2.8,4.2,3.8c1.5,0.9,3.3,1.5,5.1,1.7
			c5.9,0.4,11.5-2.8,14.9-7.5c4.6-6.4,5.9-14.5,5.5-22.2c-0.3-5.4-0.8-10.9-2.3-16.2c-0.9-3.1-2.1-6.4-4.4-8.8
			c-0.8-0.8-1.7-1.6-2.8-2c-0.9-0.4-2-0.6-3-0.5c-2.2,0.2-4.3,1.4-5.8,2.9c-4.3,4.2-6.2,10.2-6.8,16.1c-0.9,6.7,0.3,21.2,5.5,22.1
			c-4.5-2.1-5.4-13.1-4.4-21.9c0.7-5.7,2.5-11.5,6.6-15.4c1.4-1.3,3.3-2.4,5.1-2.5c0.8-0.1,1.6,0.1,2.4,0.4c0.9,0.4,1.7,1,2.4,1.8
			c2.1,2.2,3.2,5.3,4.1,8.4c1.4,5.1,2,10.5,2.2,15.9c0.3,7.5-1,15.4-5.3,21.3c-3.2,4.3-8.4,7.3-13.7,6.8c-1.5-0.1-3.1-0.7-4.4-1.5
			c-1.5-0.9-2.8-2.1-3.9-3.5c-2.8-3.5-4.5-7.8-5.8-12.2c-1.6-5.5-2.5-11.2-3-16.9c-0.5-6.4-0.4-12.8,0.1-19.2
			c0.6-6.4,1.6-12.8,3.3-18.9c1.6-5.6,3.7-11.2,6.7-16.1c2.6-4.3,5.9-8.2,10.1-10.8c4-2.5,8.8-3.7,13.5-3.3c2.5,0.2,4.9,0.9,7.1,2.1
			c2.3,1.2,4.4,2.9,6.2,4.9c4.4,4.7,7.3,10.7,9.6,16.8c2.7,7.5,4.3,15.4,5.2,23.4c1,8.7,1.2,17.6,0.6,26.3s-2,17.4-4.3,25.8
			c-2.2,7.7-5.1,15.1-9.4,21.7c-3.7,5.8-8.6,10.9-14.5,14.1c-2.9,1.6-6,2.7-9.2,3.2c-3.5,0.6-7.1,0.7-10.6,0.2
			c-5.8-0.7-11.4-2.5-16.2-5.6c-4.5-2.9-8.3-6.9-11.2-11.4c-3.2-5.1-5.4-10.8-6.9-16.7c-1-3.7-1.6-7.4-2.2-11.2
			c-0.1-0.5-0.1-1.1-0.2-1.6c-0.4-2.8-0.6-5.6-0.8-8.5c-1.1-17.5,0.5-35.2,2.9-52.7c2.8-20.4,7-40.6,11.6-60.7
			c2-8.6,4.3-17.1,6.8-25.7c3.2-11.2,6.7-22.4,10.3-33.5c9.3-28.4,19.4-56.5,30.1-84.4c6.3-15.7,12.5-31.3,18.8-46.8L392.7,295.5z"
			/>
		<linearGradient id="path3235_1_" gradientUnits="userSpaceOnUse" x1="399.0465" y1="138.4311" x2="1033.2341" y2="138.4311">
			<stop  offset="0" style="stop-color:#DFD5B8"/>
			<stop  offset="0.3378" style="stop-color:#EBE3C2"/>
			<stop  offset="0.6415" style="stop-color:#E2D9BB"/>
			<stop  offset="1" style="stop-color:#CCBC92"/>
		</linearGradient>
		<path id="path3235" inkscape:connector-curvature="0" class="st40" d="M-66,132.7c119.7-5.5,259.5-3.3,465,14.2
			C237.6,134.7,83.9,131-66,132.7z"/>
		<linearGradient id="path4364_1_" gradientUnits="userSpaceOnUse" x1="-67.4533" y1="68.0175" x2="-5.9439" y2="68.0175">
			<stop  offset="0" style="stop-color:#DFD5B8"/>
			<stop  offset="0.3378" style="stop-color:#EBE3C2"/>
			<stop  offset="0.6415" style="stop-color:#E2D9BB"/>
			<stop  offset="1" style="stop-color:#CCBC92"/>
		</linearGradient>
		<path id="path4364" inkscape:connector-curvature="0" class="st41" d="M-68.1,3.1c-0.4,0-0.8,0.1-1.3,0.3c-0.1,0-0.1,0-0.2,0.1
			c-6.6,2.1-12.9,5.3-18.3,9.6c-1.9,1.5-4.8,4.6-6.5,6.3l3.1-1.3c1.4-1.4,2.7-2.7,4.2-4c5.2-4.3,11.2-7.6,17.7-9.8
			c0.1,0,0.1,0,0.2-0.1c1-0.3,1.7-0.8,1.7-1C-67.5,3.1-67.8,3.1-68.1,3.1L-68.1,3.1z M-96,23.5l-2.4,0.4c-1.3,1.8-2.6,3.6-3.7,5.5
			c-6.9,11.8-10.2,25.5-10.5,39.2c0,0.1,0,0.2,0,0.3c0,1,0,2.1,0.1,3.2c0.3,7.3,1.5,14.6,3.7,21.7c2,6.7,5,13.1,8.9,18.8
			c3.7,5.4,8.3,10.3,13.8,13.9c4.9,3.3,10.6,5.4,16.4,6.4c0.1,0,0.2,0,0.2,0c1,0.2,1.9,0.1,2-0.2c0-0.2-0.8-0.5-1.8-0.7
			c-0.1,0-0.1,0-0.2,0c-5.7-1.1-11.1-3.3-15.8-6.6c-5.3-3.6-9.7-8.5-13.2-13.8c-3.7-5.7-6.4-12-8.2-18.5c-1.9-6.9-2.9-14-3.1-21.1
			c0-1,0-2,0-3.1c0-0.1,0-0.2,0-0.3c-0.1-13.3,2.8-26.7,9.3-38.3C-99.1,28-97.6,25.7-96,23.5z"/>
		<linearGradient id="path4420_1_" gradientUnits="userSpaceOnUse" x1="6.6701" y1="384.3739" x2="205.0193" y2="384.3739">
			<stop  offset="0" style="stop-color:#DFD5B8"/>
			<stop  offset="0.3378" style="stop-color:#EBE3C2"/>
			<stop  offset="0.6415" style="stop-color:#E2D9BB"/>
			<stop  offset="1" style="stop-color:#CCBC92"/>
		</linearGradient>
		<path id="path4420" inkscape:connector-curvature="0" class="st42" d="M6.6,132.5c-0.2-0.1-1.7,2.4-3.2,5.5l-0.2,0.6L-31,208.9
			c-12.1,26-23.7,52.3-34.7,78.8c-12.5,29.9-24.3,60.2-35,90.8c-1.2,3.3-2.3,6.6-3.4,10c-0.1,0.3-0.2,0.6-0.3,0.9
			c-8.8,26.6-16.8,53.5-23.1,80.8c-2.4,10.5-4.6,22-6.4,32.7l2.2-2.4c1.8-10,3.9-19.9,6.2-29.8c6.4-27.2,14.5-54,23.5-80.5
			c0.1-0.3,0.2-0.6,0.3-0.9c1.1-3.3,2.2-6.6,3.3-10c10.5-30.6,22-60.9,34.3-90.9c10.9-26.5,22.3-52.9,34.2-79l33.7-70.5l0.3-0.6
			C5.7,135.3,6.8,132.6,6.6,132.5z M-133.5,511.4l-2.4,3.4c-1.7,12.1-2.8,24.3-2.9,36.6c-0.1,11.1,0.5,22.2,2.6,33.1
			c1.8,9.1,4.7,18.2,9.5,26.2c4.3,7.2,10.2,13.5,17.3,17.9c5.9,3.6,12.4,5.8,19.1,7.1c0.2,0,0.4,0.1,0.7,0.1
			c3.4,0.6,6.3,0.6,6.3,0.4c0-0.2-2.9-0.6-6.2-1.2c-0.2,0-0.4-0.1-0.6-0.1c-6.6-1.3-13.1-3.5-18.8-7.1c-7-4.3-12.7-10.5-16.8-17.6
			c-4.6-7.9-7.4-16.9-9.1-25.9c-2-10.8-2.6-21.8-2.4-32.8c0.3-12.8,1.6-25.6,3.5-38.3C-133.6,512.5-133.5,511.9-133.5,511.4z"/>
	</g>
</g>
<g>
	<rect x="666.6" y="431.7" class="st43" width="376.3" height="312.5"/>
	<text transform="matrix(1 0 0 1 666.6014 704.0789)" class="st44 st45">JS</text>
</g>
</svg>
